PathFileType	4	(X/Y/Z)	C:\Users\86182\Documents\cortex\Trimmed_M4_H11.trc
DataRate	CameraRate	NumFrames	NumMarkers	Units	OrigDataRate	OrigDataStartFrame	OrigNumFrames
100.00	100.00	       84	2	mm	100.00	181	       901
Frame#	Time	gripper			box			
		X1	Y1	Z1	X2	Y2	Z2	

181	1.800	278.20767	149.98958	224.01915	280.82007	146.95299	87.68538	
182	1.810	278.18417	149.99928	224.44540	280.78412	146.96786	88.11291	
183	1.820	278.19727	149.99884	224.85165	280.71921	146.98070	88.55388	
184	1.830	278.28214	149.98344	225.22749	280.64569	146.98778	88.99709	
185	1.840	278.41846	149.95830	225.58505	280.59485	146.98502	89.42741	
186	1.850	278.55396	149.93376	225.94788	280.56741	146.97444	89.84854	
187	1.860	278.64191	149.91933	226.33551	280.53571	146.96407	90.27937	
188	1.870	278.64395	149.92430	226.76331	280.48529	146.96017	90.72867	
189	1.880	278.52237	149.95822	227.24556	280.44128	146.96120	91.18095	
190	1.890	278.26624	150.02403	227.78481	280.44028	146.96191	91.61449	
191	1.900	277.91666	150.11319	228.36237	280.48969	146.96069	92.02480	
192	1.910	277.54541	150.21065	228.94801	280.56610	146.95975	92.42389	
193	1.920	277.21185	150.30356	229.51643	280.65076	146.95903	92.81888	
194	1.930	276.94476	150.38481	230.05379	280.75043	146.95363	93.20098	
195	1.940	276.75027	150.45161	230.55589	280.86526	146.94104	93.56575	
196	1.950	276.62119	150.50313	231.02538	280.95599	146.92818	93.93301	
197	1.960	276.54327	150.53986	231.46835	280.97653	146.92574	94.32880	
198	1.970	276.50180	150.56354	231.89186	280.93286	146.93605	94.75156	
199	1.980	276.48502	150.57663	232.30263	280.87943	146.95038	95.17325	
200	1.990	276.48349	150.58159	232.70650	280.85294	146.95892	95.57408	
201	2.000	276.48947	150.58113	233.10806	280.83582	146.96072	95.96430	
202	2.010	276.49860	150.57813	233.51086	280.79468	146.96124	96.36595	
203	2.020	276.51071	150.57487	233.91721	280.73810	146.96291	96.78088	
204	2.030	276.52731	150.57265	234.32796	280.71259	146.96297	97.19044	
205	2.040	276.54843	150.57202	234.74352	280.74286	146.96051	97.58559	
206	2.050	276.57205	150.57353	235.16487	280.79822	146.96077	97.98355	
207	2.060	276.59607	150.57809	235.59341	280.83047	146.97063	98.40913	
208	2.070	276.61951	150.58685	236.02965	280.83493	146.99025	98.86483	
209	2.080	276.64197	150.60051	236.47311	280.84888	147.01344	99.33059	
210	2.090	276.66196	150.61926	236.92290	280.88788	147.03754	99.79452	
211	2.100	276.67709	150.64322	237.37759	280.90982	147.06905	100.27137	
212	2.110	276.68579	150.67207	237.83517	280.85538	147.11620	100.78317	
213	2.120	276.68860	150.70432	238.29353	280.71344	147.17816	101.32825	
214	2.130	276.68726	150.73701	238.75024	280.52475	147.24576	101.88228	
215	2.140	276.68289	150.76723	239.20235	280.32376	147.31219	102.42771	
216	2.150	276.67520	150.79369	239.64767	280.10675	147.37762	102.96608	
217	2.160	276.66339	150.81657	240.08539	279.86441	147.44257	103.50021	
218	2.170	276.64758	150.83626	240.51517	279.61508	147.50269	104.02077	
219	2.180	276.62924	150.85268	240.93713	279.39111	147.55211	104.51662	
220	2.190	276.60989	150.86566	241.35315	279.21295	147.58804	104.98627	
221	2.200	276.59039	150.87541	241.76689	279.08557	147.61113	105.43546	
222	2.210	276.57166	150.88260	242.18170	279.00452	147.62381	105.87083	
223	2.220	276.55585	150.88734	242.59904	278.96085	147.62892	106.29726	
224	2.230	276.54562	150.88857	243.01895	278.94449	147.62924	106.71837	
225	2.240	276.54254	150.88521	243.44141	278.94757	147.62703	107.13793	
226	2.250	276.54657	150.87834	243.86696	278.96616	147.62367	107.55985	
227	2.260	276.55658	150.87051	244.29660	278.99838	147.61980	107.98706	
228	2.270	276.57059	150.86296	244.73029	279.04105	147.61583	108.41946	
229	2.280	276.58578	150.85455	245.16609	279.08813	147.61185	108.85356	
230	2.290	276.59869	150.84334	245.60245	279.13364	147.60721	109.28576	
231	2.300	276.60529	150.82877	246.03973	279.17438	147.60094	109.71530	
232	2.310	276.60104	150.81190	246.47816	279.20947	147.59314	110.14340	
233	2.320	276.58224	150.79349	246.91611	279.23721	147.58563	110.57048	
234	2.330	276.54840	150.77296	247.35135	279.25369	147.58023	110.99491	
235	2.340	276.50320	150.74974	247.78249	279.25504	147.57735	111.41405	
236	2.350	276.45172	150.72498	248.20901	279.24136	147.57620	111.82601	
237	2.360	276.39743	150.70145	248.63161	279.21674	147.57578	112.23145	
238	2.370	276.34268	150.68201	249.05151	279.18607	147.57535	112.63432	
239	2.380	276.29004	150.66772	249.46899	279.15231	147.57471	113.03941	
240	2.390	276.24310	150.65755	249.88327	279.11649	147.57420	113.44809	
241	2.400	276.20667	150.64987	250.29474	279.07996	147.57457	113.85803	
242	2.410	276.18478	150.64473	250.70575	279.04568	147.57628	114.26711	
243	2.420	276.17737	150.64377	251.11905	279.01746	147.57932	114.67712	
244	2.430	276.17978	150.64748	251.53600	278.99756	147.58409	115.09316	
245	2.440	276.18698	150.65395	251.95688	278.98578	147.59154	115.51868	
246	2.450	276.19711	150.66087	252.38223	278.98102	147.60179	115.95204	
247	2.460	276.21078	150.66721	252.81311	278.98260	147.61371	116.38870	
248	2.470	276.22803	150.67291	253.25009	278.99072	147.62637	116.82607	
249	2.480	276.24677	150.67836	253.69162	279.00571	147.63979	117.26527	
250	2.490	276.26373	150.68402	254.13370	279.02652	147.65329	117.70850	
251	2.500	276.27658	150.69016	254.57272	279.05038	147.66516	118.15498	
252	2.510	276.28458	150.69685	255.00854	279.07352	147.67403	118.60025	
253	2.520	276.28839	150.70416	255.44324	279.09186	147.68031	119.03993	
254	2.530	276.28873	150.71230	255.87718	279.10260	147.68582	119.47361	
255	2.540	276.28500	150.72165	256.30878	279.10666	147.69226	119.90324	
256	2.550	276.27667	150.73241	256.73660	279.10745	147.69992	120.32862	
257	2.560	276.26599	150.74400	257.16058	279.10623	147.70729	120.74734	
258	2.570	276.25830	150.75520	257.58112	279.09991	147.71227	121.15891	
259	2.580	276.25827	150.76456	257.99835	279.08511	147.71426	121.56647	
260	2.590	276.26483	150.77139	258.41248	279.06311	147.71422	121.97446	
261	2.600	276.27185	150.77666	258.82397	279.03931	147.71230	122.38663	
262	2.610	276.27527	150.78217	259.23523	279.01730	147.70679	122.80563	
263	2.620	276.27673	150.78856	259.65024	278.99564	147.69701	123.23199	
264	2.630	276.28006	150.79459	260.07175	278.97186	147.68546	123.66335	
